<svg xmlns="http://www.w3.org/2000/svg" version="1.1" xmlns:xlink="http://www.w3.org/1999/xlink" width="500" height="257" viewBox="0 0 500 257"><svg xml:space="preserve" width="500" height="257" data-version="2" data-id="lg_LEOnJ1DGNAJGdU8MCn" viewBox="0 0 561 257" x="0" y="0"><rect width="100%" height="100%" fill="transparent"></rect><circle r="125.437" fill="#c7f2de" transform="translate(281.006 122.36)scale(.8849)"></circle><path d="M54.177 101.44q2.962-.685 5.172.621 2.213 1.316 2.668 3.285.456 1.978-.461 2.538-11.848 2.736-19.01 13.411-7.162 10.675-8.728 24.563-1.565 13.889 1.742 28.212 5.515 23.881 17.983 37.3 12.461 13.43 28.375 10.967-13.189-9.783-22.75-24.92-9.57-15.135-13.296-31.27-4.981-21.573 2.323-36.878 7.313-15.308 24.023-19.167t31.507 7.997q14.794 11.845 20.06 34.645 5.266 22.81-.656 41.522-5.912 18.71-21.572 28.227 14.54 5.14 29.69 1.642 15.152-3.498 21.543-17.464 6.402-13.969 1.916-33.398.6-1.175 2.657-1.65t3.723.7q1.657 1.178 2.645 5.455.99 4.288 1.197 10.829t-1.457 13.606q-1.665 7.056-5.259 12.915-3.584 5.856-10.295 10.618-6.7 4.76-15.928 6.89-21.563 4.98-41.963-5.233-2.106.66-4.24 1.154-22.234 5.134-40.427-7.918-18.185-13.063-25.106-43.035-3.346-14.488-1.646-28.151 1.7-13.663 7.106-23.317 5.395-9.661 12.896-16.248t15.568-8.449M93.51 218.45q11.943-7.612 15.881-24.737 3.938-17.125-.833-37.791-4.772-20.666-13.615-30.427-8.85-9.749-20.786-6.993t-17.326 15.106q-5.392 12.339-1.552 28.971t14.14 31.948q10.31 15.313 24.09 23.924"></path><path d="M191.516 130.612q-1.14-4.94 1.066-8.139t6.163-4.112q3.947-.91 6.787.855l10.914 47.267q2.166 9.383 6.23 13.473 4.065 4.09 9.171 2.912 5.106-1.18 8.512-8.206 3.967-8.377-.443-27.475-.064-1.032 2.236-1.563 2.972-.686 4.988 8.045 3.23 13.991-.842 23.779-4.072 9.787-14.946 12.298-17.286 3.99-26.333-10.392-2.81 17.12-19.93 21.074-10.211 2.358-17.89-2.366-7.692-4.73-10.354-16.257l-9.467-41.001q-1.141-4.94.744-8.065 1.876-3.122 5.666-3.997t6.621.893l10.914 47.267q4.524 19.594 14.405 17.313 7.414-1.712 11.372-11.996 3.96-10.275.232-26.42z"></path><path d="M265.02 103.062q14.576-3.366 26.036 4.22t15.32 24.296q3.86 16.72-2.236 29.746t-20.584 16.37q-14.49 3.346-26.425-4.387-11.938-7.742-16.024-25.437-4.088-17.704 2.623-29.578 6.713-11.865 21.29-15.23m1.56 6.403q-4.443 1.025-7.136 3.987-2.702 2.964-1.75 7.086 2.431 10.533 12.89 18.268 10.458 7.735 22.542 8.24-1.116-6.342-2.142-10.785-3.953-17.12-9.157-23.123-5.202-5.993-15.247-3.673m-9.845 34.704q3.88 16.798 9.752 23.078 5.872 6.27 15.42 4.065 6.587-1.521 9.346-5.71 2.766-4.2 2.333-12.074-11.242.164-21.925-5.17-10.686-5.342-16.888-13.445.48 2.835 1.962 9.256m49.355-65.684q-1.14-4.94.738-8.053 1.885-3.124 5.666-3.997 3.79-.875 6.63.891l5.627 24.369 22.556-5.208q3.46-.8 4.837.278 1.366 1.07 2.088 4.198l-28.15 6.5 9.583 41.498q2.09 9.052 8.414 12.795t13.077 2.184q10.211-2.358 13.238-11.03 3.024-8.684-.891-25.638.102-1.07 2.245-1.565 2.962-.684 4.978 8.046 3.08 13.34-1.578 23.61-4.651 10.26-18.487 13.455-13.826 3.192-23.566-2.184-9.741-5.387-13.049-19.71z"></path><path d="M358.854 64.405q-3.445-2.16-4.394-6.272-.952-4.122 1.18-7.642 2.141-3.532 6.253-4.482 4.121-.951 7.662 1.27 3.548 2.208 4.5 6.33.949 4.11-1.288 7.583-2.228 3.46-6.35 4.412-4.112.95-7.563-1.2m5.392 26.333q-1.14-4.94.735-8.062 1.886-3.125 5.666-3.998 3.79-.875 6.63.891l10.915 47.267q2.166 9.383 6.883 13.323 4.728 3.937 10.983 2.493 6.265-1.447 9.944-10.271 3.687-8.836-.228-25.79.102-1.07 2.245-1.565 2.962-.684 4.978 8.046 2.927 12.677-1.898 23.336-4.828 10.649-15.527 13.12-13.339 3.08-21.672-3.32-8.324-6.401-11.67-20.89z"></path><path d="m449.248 69.027-24.865 5.741 29.239 126.629q-1.114 2.69-5.235 3.64-4.112.95-7.176-1.031-3.055-1.984-4.196-6.924L403.63 52.497q-4.828-20.91-2.667-31.816t13.533-13.532q16.301-3.764 21.397 18.306 5.854 25.352-8.234 42.481l14.655-3.384q3.459-.798 4.837.28 1.375 1.067 2.097 4.195m-20.4-41.771q-3.652-15.814-11.554-13.99-2.144.496-2.97 2.164-.835 1.67-.158 7.58.966 10.184 8.086 42.531 12.184-14.082 6.595-38.285m27.276 42.268q-1.14-4.94.735-8.062 1.885-3.124 5.675-4 3.781-.872 6.621.894l10.914 47.266q4.525 19.595 14.405 17.314 8.886-2.052 12.398-12.757 3.523-10.697-1.609-32.922l-4.182-18.113q-1.14-4.94.735-8.062 1.885-3.125 5.666-3.998 3.79-.875 6.63.891l19.317 83.66q1.93-.621 6.218-1.61 4.277-.989 5.112 2.626l-.413 2.702q-6.255 1.445-9.51 2.37l1.9 8.234q3.918 16.964-1.48 28.525-5.395 11.57-18.237 14.535-7.58 1.75-14.473-1.43-6.892-3.181-9.135-12.895-2.889-12.511 4.295-21.98 7.186-9.46 21.32-15.853l-5.931-25.684q-3.953 14.439-19.27 17.976-10.542 2.434-18.191-2.912t-10.576-18.023zm45.8 103.725q1.33 5.759 5.162 8.086 3.832 2.328 8.285 1.3 4.443-1.026 6.63-4.313 4.973-7.04-1.529-35.198-22.96 11.018-18.547 30.125"></path></svg></svg>